<svg xmlns="http://www.w3.org/2000/svg" viewBox="0 0 900 1200" role="img" aria-labelledby="title desc">
  <title id="title">Announcement placeholder</title>
  <desc id="desc">Cooperative announcement artwork placeholder</desc>
  <defs>
    <linearGradient id="bg" x1="0" x2="1" y1="0" y2="1">
      <stop offset="0" stop-color="#27B8E8"/>
      <stop offset="0.58" stop-color="#0876C9"/>
      <stop offset="1" stop-color="#123D2A"/>
    </linearGradient>
    <linearGradient id="phone" x1="0" x2="1" y1="0" y2="1">
      <stop offset="0" stop-color="#EAF3E8"/>
      <stop offset="1" stop-color="#B9E2C1"/>
    </linearGradient>
  </defs>
  <rect width="900" height="1200" fill="url(#bg)"/>
  <circle cx="780" cy="160" r="84" fill="#F2C94C" opacity="0.85"/>
  <circle cx="110" cy="1000" r="120" fill="#F2C94C" opacity="0.6"/>
  <text x="450" y="188" text-anchor="middle" font-family="Arial, sans-serif" font-size="56" font-weight="800" fill="#F2C94C">CONNECT WITH US!</text>
  <text x="450" y="248" text-anchor="middle" font-family="Arial, sans-serif" font-size="24" font-weight="600" fill="#FFFFFF">Follow our official pages for news and announcements.</text>
  <rect x="155" y="310" width="590" height="72" rx="36" fill="#FFFFFF"/>
  <text x="450" y="357" text-anchor="middle" font-family="Arial, sans-serif" font-size="28" font-weight="700" fill="#123D2A">nasugbu agriculture cooperative</text>
  <g transform="translate(230 500)">
    <rect x="0" y="0" width="440" height="520" rx="52" fill="#052F22" opacity="0.52"/>
    <rect x="42" y="42" width="356" height="436" rx="44" fill="url(#phone)"/>
    <rect x="98" y="96" width="244" height="52" rx="18" fill="#123D2A" opacity="0.9"/>
    <rect x="98" y="180" width="244" height="52" rx="18" fill="#1F6B43" opacity="0.9"/>
    <rect x="98" y="264" width="168" height="52" rx="18" fill="#4F9D69" opacity="0.95"/>
    <circle cx="114" cy="384" r="34" fill="#F2C94C"/>
    <circle cx="220" cy="384" r="34" fill="#D96C4A"/>
    <circle cx="326" cy="384" r="34" fill="#2D9CDB"/>
  </g>
</svg>
